<?xml version="1.0" standalone="no"?>
<!DOCTYPE svg PUBLIC "-//W3C//DTD SVG 20010904//EN"
 "http://www.w3.org/TR/2001/REC-SVG-20010904/DTD/svg10.dtd">
<svg version="1.0" xmlns="http://www.w3.org/2000/svg"
 width="3333.000000pt" height="3333.000000pt" viewBox="0 0 3333.000000 3333.000000"
 preserveAspectRatio="xMidYMid meet">

<g transform="translate(0.000000,3333.000000) scale(0.100000,-0.100000)"
fill="#ffffff" stroke="none">
<path d="M17117 19663 c-3 -5 -190 -471 -416 -1038 -226 -566 -423 -1059 -438
-1094 l-27 -65 -26 125 c-75 353 -197 629 -418 948 -392 567 -1017 968 -1677
1077 -103 17 -297 22 -1117 27 l-568 4 0 -989 0 -990 120 113 120 112 0 619 0
619 643 -3 c610 -4 648 -5 758 -26 580 -110 1087 -462 1388 -963 157 -263 268
-591 296 -874 19 -192 4 -464 -37 -660 -45 -223 -165 -504 -296 -701 -291
-433 -762 -754 -1273 -868 -103 -23 -162 -32 -339 -52 -30 -3 -343 -9 -695
-13 l-640 -6 0 -250 0 -250 735 -2 c799 -1 881 3 1094 53 289 69 590 206 835
379 50 35 91 61 91 57 0 -4 -38 -103 -85 -220 -47 -116 -85 -214 -85 -217 0
-3 128 -5 284 -5 l284 0 25 68 c14 37 271 679 572 1427 300 748 661 1648 802
2000 141 352 259 643 263 648 3 4 118 -280 255 -630 136 -351 275 -707 307
-790 l60 -153 284 0 c220 0 284 3 284 12 0 7 -231 590 -512 1295 l-513 1283
-167 0 c-92 0 -169 -3 -171 -7z"/>
<path d="M22163 17546 c-237 -77 -305 -372 -125 -538 66 -61 122 -82 217 -82
69 -1 88 3 139 29 290 146 200 584 -124 601 -38 2 -83 -2 -107 -10z m202 -65
c55 -24 103 -75 133 -139 20 -44 23 -65 20 -115 -10 -149 -119 -251 -268 -250
-105 0 -189 53 -236 149 -24 48 -26 63 -22 129 4 60 11 84 34 122 71 115 214
158 339 104z"/>
<path d="M19810 17530 c-24 -44 -240 -572 -240 -586 0 -8 10 -14 24 -14 20 0
28 11 53 73 l29 72 160 3 159 2 30 -72 c30 -70 54 -93 76 -71 7 7 -39 126
-202 516 -31 73 -46 97 -60 97 -10 0 -23 -9 -29 -20z m100 -244 l57 -141 -125
-3 c-69 -1 -127 0 -130 2 -2 3 24 75 59 160 48 115 66 150 73 138 5 -8 35 -79
66 -156z"/>
<path d="M20825 17528 c-3 -13 -4 -151 -3 -308 3 -282 3 -285 24 -288 28 -4
32 12 30 130 l-1 96 110 4 c119 5 151 15 196 65 40 43 52 71 52 129 0 68 -27
120 -82 159 -42 29 -46 30 -181 33 -139 3 -139 3 -145 -20z m293 -48 c63 -39
85 -140 43 -199 -39 -56 -65 -66 -177 -69 l-104 -4 0 146 0 146 103 0 c85 0
108 -3 135 -20z"/>
<path d="M23310 17240 l0 -310 25 0 25 0 2 264 3 265 209 -265 c167 -211 214
-264 230 -262 21 3 21 7 21 308 0 298 0 305 -20 305 -19 0 -20 -8 -25 -260
l-5 -260 -209 263 c-168 211 -213 262 -232 262 l-24 0 0 -310z"/>
<path d="M24550 17525 l0 -25 105 0 105 0 0 -285 0 -285 25 0 25 0 0 285 0
284 103 3 c94 3 102 4 102 23 0 19 -8 20 -232 23 l-233 2 0 -25z"/>
<path d="M25735 17538 c-3 -7 -4 -146 -3 -308 l3 -295 218 -3 218 -2 -3 27 -3
28 -188 0 -187 0 0 122 0 122 153 3 c144 3 152 4 152 23 0 19 -8 20 -152 23
l-153 3 0 109 0 110 188 2 c179 3 187 4 187 23 0 19 -8 20 -213 23 -165 2
-214 0 -217 -10z"/>
<path d="M7168 17414 c-5 -4 -8 -144 -8 -310 l0 -304 26 -6 c15 -4 77 -4 139
-1 142 8 203 29 267 94 67 69 93 130 93 223 -1 125 -59 218 -175 276 -51 26
-66 29 -195 32 -77 2 -143 1 -147 -4z m317 -78 c98 -45 152 -138 143 -249 -6
-71 -23 -111 -69 -156 -59 -60 -102 -75 -226 -79 l-113 -4 -1 238 c0 132 -2
247 -4 257 -3 15 7 17 108 17 96 0 119 -3 162 -24z"/>
<path d="M8643 17408 c-4 -7 -63 -143 -130 -303 -106 -253 -120 -292 -106
-302 25 -19 38 -6 69 70 l29 72 159 0 158 0 27 -68 c15 -38 33 -72 41 -77 18
-11 40 -1 39 19 0 9 -55 146 -122 306 -120 284 -140 319 -164 283z m24 -406
c-71 -1 -131 -1 -133 1 -2 2 26 76 63 165 l67 162 66 -163 67 -162 -130 -3z"/>
<path d="M9606 17412 c-7 -12 240 -603 257 -614 6 -4 18 -2 24 5 21 21 255
588 249 604 -3 8 -14 13 -23 11 -12 -2 -47 -75 -118 -244 -136 -326 -119 -297
-140 -249 -10 22 -60 141 -111 265 -73 176 -97 226 -113 228 -10 2 -22 -1 -25
-6z"/>
<path d="M10860 17111 l0 -311 25 0 25 0 -2 308 -3 307 -22 3 -23 3 0 -310z"/>
<path d="M11678 17414 c-5 -4 -8 -143 -8 -310 l0 -302 23 -6 c42 -11 246 2
297 19 68 23 151 99 180 167 17 39 23 72 24 125 0 63 -4 81 -34 140 -38 73
-100 129 -168 153 -42 14 -303 26 -314 14z m323 -82 c153 -80 185 -273 65
-400 -56 -61 -98 -76 -223 -80 l-112 -4 -3 248 c-2 137 -2 252 0 257 2 4 52 7
111 7 100 0 113 -2 162 -28z"/>
<path d="M17603 16576 c-40 -57 -75 -111 -79 -120 -6 -15 20 -16 312 -16 l319
1 153 -388 c84 -213 255 -648 379 -965 l226 -578 299 0 c191 0 298 4 298 10 0
8 -625 1575 -811 2033 l-51 127 -487 0 -486 -1 -72 -103z"/>
<path d="M11734 13966 c-3 -8 -4 -82 -2 -163 3 -131 5 -148 21 -151 15 -3 17
6 17 77 l0 81 39 0 c42 0 63 16 40 31 -7 4 -28 7 -46 5 l-33 -2 0 48 0 48 70
0 c62 0 70 2 70 19 0 17 -9 19 -85 20 -67 1 -87 -2 -91 -13z"/>
<path d="M12185 13971 c-7 -12 -5 -289 2 -308 3 -7 12 -13 19 -13 12 0 14 28
12 162 -2 111 -7 163 -15 165 -6 2 -14 -1 -18 -6z"/>
<path d="M12510 13817 c0 -155 1 -168 18 -165 15 3 17 17 17 116 0 61 2 112 6
112 3 0 48 -49 100 -110 51 -60 97 -110 102 -110 4 0 7 69 7 154 0 126 -3 155
-15 159 -12 5 -15 -13 -17 -115 l-3 -121 -90 103 c-49 58 -98 113 -107 125
-17 19 -17 12 -18 -148z"/>
<path d="M13174 13969 c-11 -17 -144 -299 -144 -305 0 -2 8 -4 19 -4 13 0 25
15 40 50 l22 50 68 0 69 0 23 -50 c15 -33 29 -50 41 -50 10 0 18 2 18 4 0 4
-20 48 -128 280 -14 31 -21 36 -28 25z m36 -125 c11 -26 20 -48 20 -49 0 -1
-10 -1 -22 0 -13 1 -35 3 -50 4 l-28 1 22 45 c12 25 25 45 30 45 4 0 16 -21
28 -46z"/>
<path d="M13600 13817 c0 -140 2 -164 15 -164 21 0 25 27 23 140 -2 53 -2 97
-1 97 0 0 45 -51 99 -112 53 -62 101 -114 106 -116 4 -2 8 69 8 157 0 124 -3
160 -12 159 -9 -2 -14 -38 -18 -122 l-5 -119 -104 122 c-58 66 -106 121 -108
121 -2 0 -3 -73 -3 -163z"/>
<path d="M14137 13974 c-21 -21 -4 -33 52 -36 l58 -3 -58 -122 c-84 -179 -85
-163 13 -161 77 2 104 11 92 30 -3 4 -32 8 -64 8 l-59 0 65 139 c35 77 64 142
64 144 0 8 -156 8 -163 1z"/>
<path d="M14626 13826 c-42 -87 -76 -160 -76 -162 0 -2 8 -4 18 -4 12 0 26 17
42 50 l23 50 69 0 68 0 25 -50 c14 -27 32 -50 40 -50 8 0 15 3 15 6 0 7 -59
136 -111 244 l-37 75 -76 -159z m118 -25 c-2 -2 -22 -4 -44 -5 -47 -1 -49 7
-18 67 l21 42 23 -50 c12 -27 20 -52 18 -54z"/>
<path d="M15147 13969 c-53 -31 -38 -102 34 -155 64 -47 75 -68 54 -100 -22
-34 -67 -32 -95 3 -15 19 -24 23 -32 15 -28 -28 45 -87 97 -77 49 9 76 43 73
89 -3 35 -10 45 -54 81 -61 48 -77 70 -69 96 8 24 51 26 76 3 19 -17 39 -12
39 10 0 35 -83 58 -123 35z"/>
<path d="M15900 13820 c0 -136 2 -160 15 -160 12 0 15 14 15 70 0 60 3 70 18
71 100 4 138 23 148 75 5 27 2 42 -13 62 -24 32 -49 40 -125 41 l-58 1 0 -160z
m141 110 c11 -6 19 -21 19 -35 0 -38 -25 -55 -81 -55 l-49 0 0 50 0 50 46 0
c25 0 54 -5 65 -10z"/>
<path d="M16382 13816 l3 -161 88 -3 c81 -2 87 -1 87 18 0 18 -7 20 -75 20
l-75 0 0 60 0 60 46 0 c38 0 45 3 42 18 -2 10 -13 17 -28 18 -61 3 -60 2 -60
49 l0 45 75 0 c69 0 75 2 75 21 0 19 -5 20 -90 18 l-90 -2 2 -161z"/>
<path d="M16844 13967 c-2 -7 -3 -80 -2 -162 3 -125 5 -150 18 -150 12 0 16
16 18 76 3 70 4 76 22 72 11 -3 40 -38 64 -77 25 -40 52 -73 61 -73 22 0 19
11 -25 83 l-39 65 23 9 c39 14 56 39 56 80 0 64 -42 90 -147 90 -26 0 -46 -5
-49 -13z m148 -44 c42 -38 8 -83 -64 -83 l-48 0 0 50 0 50 47 0 c29 0 53 -6
65 -17z"/>
<path d="M17345 13955 c-45 -44 -24 -100 56 -151 42 -26 57 -61 39 -93 -15
-29 -58 -27 -90 4 -22 21 -29 23 -38 12 -9 -11 -5 -20 19 -43 42 -40 101 -40
135 -1 45 52 31 90 -58 161 -51 41 -63 78 -30 94 20 11 40 6 65 -16 14 -12 20
-13 30 -3 9 10 6 17 -16 37 -37 31 -81 31 -112 -1z"/>
<path d="M17841 13964 c-64 -33 -104 -129 -82 -197 33 -100 162 -143 257 -86
94 57 98 197 7 266 -45 34 -131 42 -182 17z m134 -28 c45 -19 75 -69 75 -125
0 -37 -6 -49 -39 -82 -34 -35 -44 -39 -87 -39 -80 0 -133 47 -134 120 0 48 30
100 71 122 41 22 68 23 114 4z"/>
<path d="M18370 13821 c0 -107 4 -162 11 -167 20 -12 26 16 27 118 0 55 2 102
5 104 2 2 46 -44 97 -103 51 -60 96 -109 101 -111 5 -2 9 68 9 157 0 135 -2
161 -15 161 -12 0 -15 -23 -17 -122 l-3 -121 -104 121 c-58 67 -106 122 -108
122 -2 0 -3 -72 -3 -159z"/>
<path d="M18966 13827 c-42 -87 -76 -160 -76 -163 0 -2 8 -4 18 -4 12 0 26 17
42 50 l23 50 69 0 69 0 22 -50 c14 -32 28 -50 40 -50 9 0 17 2 17 5 0 5 -78
174 -124 270 l-24 50 -76 -158z m123 -27 c1 -4 -86 -5 -97 -1 -1 1 9 24 24 53
l26 52 24 -50 c12 -27 23 -51 23 -54z"/>
<path d="M19460 13821 l0 -161 80 0 c63 0 80 3 80 15 0 10 -16 15 -62 17 l-61
3 -1 140 c-1 125 -3 140 -18 143 -17 3 -18 -10 -18 -157z"/>
<path d="M19885 13968 c-3 -8 -4 -81 -3 -163 l3 -150 89 0 c77 0 89 2 92 18 2
15 -7 17 -72 17 l-74 0 0 60 0 60 46 0 c38 0 45 3 42 18 -2 12 -15 18 -46 20
l-42 3 0 45 0 44 76 0 c66 0 75 2 72 18 -3 14 -17 18 -91 20 -67 3 -88 0 -92
-10z"/>
<path d="M20365 13955 c-14 -13 -25 -35 -25 -49 0 -30 38 -77 85 -106 43 -26
55 -63 30 -90 -25 -27 -60 -25 -87 5 -17 18 -27 22 -38 15 -13 -8 -10 -15 17
-42 60 -60 143 -38 159 41 7 31 3 37 -60 96 -53 49 -67 68 -64 86 4 31 51 38
79 13 16 -14 22 -15 32 -5 9 10 6 17 -16 37 -37 31 -81 31 -112 -1z"/>
</g>
</svg>
